<svg xmlns="http://www.w3.org/2000/svg" xmlns:xlink="http://www.w3.org/1999/xlink" width="1024" zoomAndPan="magnify" viewBox="0 0 768 767.999994" height="1024" preserveAspectRatio="xMidYMid meet" version="1.0"><defs><g/><clipPath id="44129e34c2"><path d="M 27 0 L 741 0 C 748.160156 0 755.027344 2.84375 760.09375 7.90625 C 765.15625 12.972656 768 19.839844 768 27 L 768 741 C 768 755.910156 755.910156 768 741 768 L 27 768 C 12.089844 768 0 755.910156 0 741 L 0 27 C 0 12.089844 12.089844 0 27 0 Z M 27 0 " clip-rule="nonzero"/></clipPath><clipPath id="87348d005f"><path d="M 0 0 L 768 0 L 768 768 L 0 768 Z M 0 0 " clip-rule="nonzero"/></clipPath><clipPath id="89c13ced80"><path d="M 27 0 L 741 0 C 748.160156 0 755.027344 2.84375 760.09375 7.90625 C 765.15625 12.972656 768 19.839844 768 27 L 768 741 C 768 755.910156 755.910156 768 741 768 L 27 768 C 12.089844 768 0 755.910156 0 741 L 0 27 C 0 12.089844 12.089844 0 27 0 Z M 27 0 " clip-rule="nonzero"/></clipPath><clipPath id="56b5fe33b5"><rect x="0" width="768" y="0" height="768"/></clipPath><clipPath id="c885439a35"><rect x="0" width="369" y="0" height="287"/></clipPath></defs><g clip-path="url(#44129e34c2)"><g transform="matrix(1, 0, 0, 1, 0, -0.000000000000057351)"><g clip-path="url(#56b5fe33b5)"><g clip-path="url(#87348d005f)"><g clip-path="url(#89c13ced80)"><rect x="-168.96" width="1105.92" fill="#28405d" height="1105.919991" y="-168.959999" fill-opacity="1"/></g></g></g></g></g><g transform="matrix(1, 0, 0, 1, 363, 481)"><g clip-path="url(#c885439a35)"><g fill="#ededed" fill-opacity="1"><g transform="translate(0.994658, 214.337471)"><g><path d="M 11.40625 -8.84375 L 20.234375 -44.75 C 26.128906 -41.707031 33.300781 -38.953125 41.75 -36.484375 C 50.207031 -34.015625 59.09375 -32.78125 68.40625 -32.78125 C 78.476562 -32.78125 86.078125 -34.679688 91.203125 -38.484375 C 96.335938 -42.285156 98.90625 -47.316406 98.90625 -53.578125 C 98.90625 -59.660156 96.429688 -64.648438 91.484375 -68.546875 C 86.546875 -72.441406 78.285156 -76.476562 66.703125 -80.65625 C 50.734375 -86.175781 37.953125 -93.539062 28.359375 -102.75 C 18.765625 -111.96875 13.96875 -123.515625 13.96875 -137.390625 C 13.96875 -148.410156 16.863281 -158.242188 22.65625 -166.890625 C 28.457031 -175.535156 36.816406 -182.421875 47.734375 -187.546875 C 58.660156 -192.679688 71.632812 -195.25 86.65625 -195.25 C 97.476562 -195.25 106.925781 -194.296875 115 -192.390625 C 123.082031 -190.492188 129.972656 -188.21875 135.671875 -185.5625 L 125.984375 -150.5 C 122.179688 -152.394531 116.90625 -154.390625 110.15625 -156.484375 C 103.414062 -158.578125 95.296875 -159.625 85.796875 -159.625 C 76.484375 -159.625 69.5 -157.769531 64.84375 -154.0625 C 60.1875 -150.351562 57.859375 -146.03125 57.859375 -141.09375 C 57.859375 -135.007812 60.707031 -130.160156 66.40625 -126.546875 C 72.113281 -122.941406 81.140625 -118.765625 93.484375 -114.015625 C 110.398438 -107.742188 122.941406 -100 131.109375 -90.78125 C 139.285156 -81.5625 143.375 -70.207031 143.375 -56.71875 C 143.375 -46.082031 140.566406 -36.203125 134.953125 -27.078125 C 129.347656 -17.953125 120.84375 -10.679688 109.4375 -5.265625 C 98.039062 0.140625 83.507812 2.84375 65.84375 2.84375 C 54.820312 2.84375 44.367188 1.65625 34.484375 -0.71875 C 24.609375 -3.09375 16.914062 -5.800781 11.40625 -8.84375 Z M 11.40625 -8.84375 "/></g></g></g><g fill="#ededed" fill-opacity="1"><g transform="translate(176.861877, 214.337471)"><g><path d="M 153.34375 -39.328125 L 159.90625 -5.421875 C 155.914062 -3.515625 149.644531 -1.660156 141.09375 0.140625 C 132.539062 1.941406 122.375 2.84375 110.59375 2.84375 C 88.550781 2.84375 70.023438 -1.332031 55.015625 -9.6875 C 40.003906 -18.050781 28.742188 -29.5 21.234375 -44.03125 C 13.722656 -58.570312 9.96875 -74.960938 9.96875 -93.203125 C 9.96875 -115.054688 14.671875 -133.582031 24.078125 -148.78125 C 33.484375 -163.988281 46.117188 -175.535156 61.984375 -183.421875 C 77.859375 -191.304688 95.488281 -195.25 114.875 -195.25 C 126.082031 -195.25 135.816406 -194.34375 144.078125 -192.53125 C 152.347656 -190.726562 158.382812 -188.785156 162.1875 -186.703125 L 153.34375 -152.203125 C 148.976562 -154.109375 143.753906 -155.769531 137.671875 -157.1875 C 131.585938 -158.613281 124.648438 -159.328125 116.859375 -159.328125 C 105.460938 -159.328125 95.109375 -157 85.796875 -152.34375 C 76.484375 -147.6875 69.117188 -140.65625 63.703125 -131.25 C 58.285156 -121.84375 55.578125 -110.015625 55.578125 -95.765625 C 55.578125 -76.578125 60.992188 -61.328125 71.828125 -50.015625 C 82.660156 -38.710938 97.765625 -33.0625 117.140625 -33.0625 C 123.796875 -33.0625 130.445312 -33.675781 137.09375 -34.90625 C 143.75 -36.144531 149.164062 -37.617188 153.34375 -39.328125 Z M 153.34375 -39.328125 "/></g></g></g></g></g></svg>